# xmcd
#
# Track frame offsets: 
#        150
#        13818
#        31129
#        44196
#        59255
#        78933
#        96860
#        113054
#        133642
#        145779
#        162061
#        177174
#        188563
#        206265
#        222043
#        239264
#        255234
#        268351
#
# Disc length: 3836 seconds
#
# Revision: 0
# Processed by: cddbd v1.5.2PL0 Copyright (c) Steve Scherf et al.
# Submitted via: ExactAudioCopy v0.99pb5
#
DISCID=f20efa12
DTITLE=Various Artist - Highland Heartbeat
DYEAR=2009
DGENRE=Scottish
TTITLE0=My Heart's in the Highlands
TTITLE1=The Kirst
TTITLE2=Welcome, Willie Stewart
TTITLE3=The Rose
TTITLE4=The Wild Geese
TTITLE5=Loch Lomond
TTITLE6=I'm Gonna Be (500 miles)
TTITLE7=Bridge over Troubled Water
TTITLE8=Rantin, Rovin' Robin
TTITLE9=Ae Fond Kiss
TTITLE10=Gaelic Mouth Music Medley
TTITLE11=Down in the Glen
TTITLE12=Highland Angels
TTITLE13=Let the River Run
TTITLE14=Hushabye Mountain
TTITLE15=Lochanside
TTITLE16=Raise the Flag (for Scotland)
TTITLE17=Auld Lang Syne
EXTD=www.highlandheartbeat.com\n\nKennedy production company
EXTT0=
EXTT1=
EXTT2=
EXTT3=
EXTT4=
EXTT5=
EXTT6=
EXTT7=
EXTT8=
EXTT9=
EXTT10=
EXTT11=
EXTT12=
EXTT13=
EXTT14=
EXTT15=
EXTT16=
EXTT17=
PLAYORDER=
